<mxfile host="app.diagrams.net" modified="2023-05-30T19:57:51.678Z" agent="Mozilla/5.0 (Windows NT 10.0; Win64; x64) AppleWebKit/537.36 (KHTML, like Gecko) Chrome/113.0.0.0 Safari/537.36" etag="gDzaCdprIGDkZf_fZedU" version="21.3.2" type="device">
  <diagram name="PÃ¡gina-1" id="J4K7iichQjgb96UlARjg">
    <mxGraphModel dx="1434" dy="764" grid="1" gridSize="10" guides="1" tooltips="1" connect="1" arrows="1" fold="1" page="1" pageScale="1" pageWidth="827" pageHeight="1169" math="0" shadow="0">
      <root>
        <mxCell id="0" />
        <mxCell id="1" parent="0" />
        <mxCell id="LOVSOSI9yWZroj-ZfK8c-110" value="Compra" style="swimlane;fontStyle=1;align=center;verticalAlign=top;childLayout=stackLayout;horizontal=1;startSize=26;horizontalStack=0;resizeParent=1;resizeParentMax=0;resizeLast=0;collapsible=1;marginBottom=0;whiteSpace=wrap;html=1;" parent="1" vertex="1">
          <mxGeometry x="240" y="40" width="160" height="180" as="geometry" />
        </mxCell>
        <mxCell id="LOVSOSI9yWZroj-ZfK8c-111" value="- metodoPagamento: String&lt;br&gt;- statusCompra: String" style="text;strokeColor=none;fillColor=none;align=left;verticalAlign=top;spacingLeft=4;spacingRight=4;overflow=hidden;rotatable=0;points=[[0,0.5],[1,0.5]];portConstraint=eastwest;whiteSpace=wrap;html=1;" parent="LOVSOSI9yWZroj-ZfK8c-110" vertex="1">
          <mxGeometry y="26" width="160" height="44" as="geometry" />
        </mxCell>
        <mxCell id="LOVSOSI9yWZroj-ZfK8c-112" value="" style="line;strokeWidth=1;fillColor=none;align=left;verticalAlign=middle;spacingTop=-1;spacingLeft=3;spacingRight=3;rotatable=0;labelPosition=right;points=[];portConstraint=eastwest;strokeColor=inherit;" parent="LOVSOSI9yWZroj-ZfK8c-110" vertex="1">
          <mxGeometry y="70" width="160" height="8" as="geometry" />
        </mxCell>
        <mxCell id="LOVSOSI9yWZroj-ZfK8c-113" value="+ Compra (dadosCompra: DadosCriarCompra): Void&lt;br&gt;+ getMetodoPagamento (): String;&lt;br&gt;+ getStatusCompra (): String;&lt;br&gt;+ toString(): String;" style="text;strokeColor=none;fillColor=none;align=left;verticalAlign=top;spacingLeft=4;spacingRight=4;overflow=hidden;rotatable=0;points=[[0,0.5],[1,0.5]];portConstraint=eastwest;whiteSpace=wrap;html=1;" parent="LOVSOSI9yWZroj-ZfK8c-110" vertex="1">
          <mxGeometry y="78" width="160" height="102" as="geometry" />
        </mxCell>
        <mxCell id="LOVSOSI9yWZroj-ZfK8c-114" value="ItemCompra" style="swimlane;fontStyle=1;align=center;verticalAlign=top;childLayout=stackLayout;horizontal=1;startSize=26;horizontalStack=0;resizeParent=1;resizeParentMax=0;resizeLast=0;collapsible=1;marginBottom=0;whiteSpace=wrap;html=1;" parent="1" vertex="1">
          <mxGeometry x="440" y="40" width="160" height="200" as="geometry" />
        </mxCell>
        <mxCell id="LOVSOSI9yWZroj-ZfK8c-115" value="- quantidade: Integer;&lt;br&gt;- produto: Produto;&lt;br&gt;- compra: Compra;" style="text;strokeColor=none;fillColor=none;align=left;verticalAlign=top;spacingLeft=4;spacingRight=4;overflow=hidden;rotatable=0;points=[[0,0.5],[1,0.5]];portConstraint=eastwest;whiteSpace=wrap;html=1;" parent="LOVSOSI9yWZroj-ZfK8c-114" vertex="1">
          <mxGeometry y="26" width="160" height="54" as="geometry" />
        </mxCell>
        <mxCell id="LOVSOSI9yWZroj-ZfK8c-116" value="" style="line;strokeWidth=1;fillColor=none;align=left;verticalAlign=middle;spacingTop=-1;spacingLeft=3;spacingRight=3;rotatable=0;labelPosition=right;points=[];portConstraint=eastwest;strokeColor=inherit;" parent="LOVSOSI9yWZroj-ZfK8c-114" vertex="1">
          <mxGeometry y="80" width="160" height="8" as="geometry" />
        </mxCell>
        <mxCell id="LOVSOSI9yWZroj-ZfK8c-117" value="+ ItemCompra (dadosItemCompra: DadosCriarItemCompra)&lt;br&gt;+ getQuantidade (): Integer;&lt;br&gt;+ getProduto (): Produto;&lt;br&gt;+ getCompra (): Compra;&lt;br&gt;+ toString(): String;" style="text;strokeColor=none;fillColor=none;align=left;verticalAlign=top;spacingLeft=4;spacingRight=4;overflow=hidden;rotatable=0;points=[[0,0.5],[1,0.5]];portConstraint=eastwest;whiteSpace=wrap;html=1;" parent="LOVSOSI9yWZroj-ZfK8c-114" vertex="1">
          <mxGeometry y="88" width="160" height="112" as="geometry" />
        </mxCell>
        <mxCell id="LOVSOSI9yWZroj-ZfK8c-118" value="CompraDAO" style="swimlane;fontStyle=1;align=center;verticalAlign=top;childLayout=stackLayout;horizontal=1;startSize=26;horizontalStack=0;resizeParent=1;resizeParentMax=0;resizeLast=0;collapsible=1;marginBottom=0;whiteSpace=wrap;html=1;" parent="1" vertex="1">
          <mxGeometry x="240" y="320" width="160" height="60" as="geometry" />
        </mxCell>
        <mxCell id="LOVSOSI9yWZroj-ZfK8c-120" value="" style="line;strokeWidth=1;fillColor=none;align=left;verticalAlign=middle;spacingTop=-1;spacingLeft=3;spacingRight=3;rotatable=0;labelPosition=right;points=[];portConstraint=eastwest;strokeColor=inherit;" parent="LOVSOSI9yWZroj-ZfK8c-118" vertex="1">
          <mxGeometry y="26" width="160" height="8" as="geometry" />
        </mxCell>
        <mxCell id="LOVSOSI9yWZroj-ZfK8c-121" value="+ CompraDAO (): Void;&lt;br&gt;" style="text;strokeColor=none;fillColor=none;align=left;verticalAlign=top;spacingLeft=4;spacingRight=4;overflow=hidden;rotatable=0;points=[[0,0.5],[1,0.5]];portConstraint=eastwest;whiteSpace=wrap;html=1;" parent="LOVSOSI9yWZroj-ZfK8c-118" vertex="1">
          <mxGeometry y="34" width="160" height="26" as="geometry" />
        </mxCell>
        <mxCell id="LOVSOSI9yWZroj-ZfK8c-122" value="ItemCompraDAO" style="swimlane;fontStyle=1;align=center;verticalAlign=top;childLayout=stackLayout;horizontal=1;startSize=26;horizontalStack=0;resizeParent=1;resizeParentMax=0;resizeLast=0;collapsible=1;marginBottom=0;whiteSpace=wrap;html=1;" parent="1" vertex="1">
          <mxGeometry x="440" y="320" width="160" height="60" as="geometry" />
        </mxCell>
        <mxCell id="LOVSOSI9yWZroj-ZfK8c-124" value="" style="line;strokeWidth=1;fillColor=none;align=left;verticalAlign=middle;spacingTop=-1;spacingLeft=3;spacingRight=3;rotatable=0;labelPosition=right;points=[];portConstraint=eastwest;strokeColor=inherit;" parent="LOVSOSI9yWZroj-ZfK8c-122" vertex="1">
          <mxGeometry y="26" width="160" height="8" as="geometry" />
        </mxCell>
        <mxCell id="LOVSOSI9yWZroj-ZfK8c-125" value="+ ItemCompraDAO (): Void;" style="text;strokeColor=none;fillColor=none;align=left;verticalAlign=top;spacingLeft=4;spacingRight=4;overflow=hidden;rotatable=0;points=[[0,0.5],[1,0.5]];portConstraint=eastwest;whiteSpace=wrap;html=1;" parent="LOVSOSI9yWZroj-ZfK8c-122" vertex="1">
          <mxGeometry y="34" width="160" height="26" as="geometry" />
        </mxCell>
        <mxCell id="iCxSiJEH_hMPDZQZ9Img-1" value="BaseDAO" style="swimlane;fontStyle=1;align=center;verticalAlign=top;childLayout=stackLayout;horizontal=1;startSize=26;horizontalStack=0;resizeParent=1;resizeParentMax=0;resizeLast=0;collapsible=1;marginBottom=0;whiteSpace=wrap;html=1;" vertex="1" parent="1">
          <mxGeometry x="40" y="320" width="160" height="240" as="geometry" />
        </mxCell>
        <mxCell id="iCxSiJEH_hMPDZQZ9Img-2" value="- conn: Connection;" style="text;strokeColor=none;fillColor=none;align=left;verticalAlign=top;spacingLeft=4;spacingRight=4;overflow=hidden;rotatable=0;points=[[0,0.5],[1,0.5]];portConstraint=eastwest;whiteSpace=wrap;html=1;" vertex="1" parent="iCxSiJEH_hMPDZQZ9Img-1">
          <mxGeometry y="26" width="160" height="34" as="geometry" />
        </mxCell>
        <mxCell id="iCxSiJEH_hMPDZQZ9Img-3" value="" style="line;strokeWidth=1;fillColor=none;align=left;verticalAlign=middle;spacingTop=-1;spacingLeft=3;spacingRight=3;rotatable=0;labelPosition=right;points=[];portConstraint=eastwest;strokeColor=inherit;" vertex="1" parent="iCxSiJEH_hMPDZQZ9Img-1">
          <mxGeometry y="60" width="160" height="8" as="geometry" />
        </mxCell>
        <mxCell id="iCxSiJEH_hMPDZQZ9Img-4" value="+ BaseDAO (connection: Connection): Void;&lt;br&gt;+ adicionar(dadosBase: DadosCriarBase): Void;&lt;br&gt;+ editar(dadosBase: DadosEditarBase): Void;&lt;br&gt;+ listar(): ArrayList&amp;lt;Base&amp;gt;;&lt;br&gt;+ capturarObjeto(id: Integer): Base;&lt;br&gt;+ removerObjeto (id: Integer): Void;" style="text;strokeColor=none;fillColor=none;align=left;verticalAlign=top;spacingLeft=4;spacingRight=4;overflow=hidden;rotatable=0;points=[[0,0.5],[1,0.5]];portConstraint=eastwest;whiteSpace=wrap;html=1;" vertex="1" parent="iCxSiJEH_hMPDZQZ9Img-1">
          <mxGeometry y="68" width="160" height="172" as="geometry" />
        </mxCell>
        <mxCell id="iCxSiJEH_hMPDZQZ9Img-5" value="Base" style="swimlane;fontStyle=1;align=center;verticalAlign=top;childLayout=stackLayout;horizontal=1;startSize=26;horizontalStack=0;resizeParent=1;resizeParentMax=0;resizeLast=0;collapsible=1;marginBottom=0;whiteSpace=wrap;html=1;" vertex="1" parent="1">
          <mxGeometry x="40" y="40" width="160" height="160" as="geometry" />
        </mxCell>
        <mxCell id="iCxSiJEH_hMPDZQZ9Img-6" value="- id: Integer&lt;br&gt;- valor: Double" style="text;strokeColor=none;fillColor=none;align=left;verticalAlign=top;spacingLeft=4;spacingRight=4;overflow=hidden;rotatable=0;points=[[0,0.5],[1,0.5]];portConstraint=eastwest;whiteSpace=wrap;html=1;" vertex="1" parent="iCxSiJEH_hMPDZQZ9Img-5">
          <mxGeometry y="26" width="160" height="44" as="geometry" />
        </mxCell>
        <mxCell id="iCxSiJEH_hMPDZQZ9Img-7" value="" style="line;strokeWidth=1;fillColor=none;align=left;verticalAlign=middle;spacingTop=-1;spacingLeft=3;spacingRight=3;rotatable=0;labelPosition=right;points=[];portConstraint=eastwest;strokeColor=inherit;" vertex="1" parent="iCxSiJEH_hMPDZQZ9Img-5">
          <mxGeometry y="70" width="160" height="8" as="geometry" />
        </mxCell>
        <mxCell id="iCxSiJEH_hMPDZQZ9Img-8" value="+ Base(dadosBase: DadosCriarBase): Void&lt;br&gt;+ getID (): Integer;&lt;br&gt;+ getValor (): Double;&lt;br&gt;+ toString(): String;" style="text;strokeColor=none;fillColor=none;align=left;verticalAlign=top;spacingLeft=4;spacingRight=4;overflow=hidden;rotatable=0;points=[[0,0.5],[1,0.5]];portConstraint=eastwest;whiteSpace=wrap;html=1;" vertex="1" parent="iCxSiJEH_hMPDZQZ9Img-5">
          <mxGeometry y="78" width="160" height="82" as="geometry" />
        </mxCell>
        <mxCell id="iCxSiJEH_hMPDZQZ9Img-9" value="Produto" style="swimlane;fontStyle=1;align=center;verticalAlign=top;childLayout=stackLayout;horizontal=1;startSize=26;horizontalStack=0;resizeParent=1;resizeParentMax=0;resizeLast=0;collapsible=1;marginBottom=0;whiteSpace=wrap;html=1;" vertex="1" parent="1">
          <mxGeometry x="640" y="40" width="160" height="250" as="geometry" />
        </mxCell>
        <mxCell id="iCxSiJEH_hMPDZQZ9Img-10" value="- nome: String;&lt;br&gt;- descricao: String;&lt;br&gt;- unMedida: String;&lt;br&gt;-ValorMedida: Double;&lt;br&gt;- Categoria: String;" style="text;strokeColor=none;fillColor=none;align=left;verticalAlign=top;spacingLeft=4;spacingRight=4;overflow=hidden;rotatable=0;points=[[0,0.5],[1,0.5]];portConstraint=eastwest;whiteSpace=wrap;html=1;" vertex="1" parent="iCxSiJEH_hMPDZQZ9Img-9">
          <mxGeometry y="26" width="160" height="84" as="geometry" />
        </mxCell>
        <mxCell id="iCxSiJEH_hMPDZQZ9Img-11" value="" style="line;strokeWidth=1;fillColor=none;align=left;verticalAlign=middle;spacingTop=-1;spacingLeft=3;spacingRight=3;rotatable=0;labelPosition=right;points=[];portConstraint=eastwest;strokeColor=inherit;" vertex="1" parent="iCxSiJEH_hMPDZQZ9Img-9">
          <mxGeometry y="110" width="160" height="8" as="geometry" />
        </mxCell>
        <mxCell id="iCxSiJEH_hMPDZQZ9Img-12" value="+ Produto (dadosProduto: DadosCriarProduto)&lt;br&gt;+ getNome (): String;&lt;br&gt;+ getDescricao (): String;&lt;br&gt;+ getUnMedida (): String;&lt;br&gt;+ getValorMedida (): Double;&lt;br&gt;+ getCategoria (): String;&lt;br&gt;+ toString(): String;" style="text;strokeColor=none;fillColor=none;align=left;verticalAlign=top;spacingLeft=4;spacingRight=4;overflow=hidden;rotatable=0;points=[[0,0.5],[1,0.5]];portConstraint=eastwest;whiteSpace=wrap;html=1;" vertex="1" parent="iCxSiJEH_hMPDZQZ9Img-9">
          <mxGeometry y="118" width="160" height="132" as="geometry" />
        </mxCell>
        <mxCell id="iCxSiJEH_hMPDZQZ9Img-13" value="ProdutoDAO" style="swimlane;fontStyle=1;align=center;verticalAlign=top;childLayout=stackLayout;horizontal=1;startSize=26;horizontalStack=0;resizeParent=1;resizeParentMax=0;resizeLast=0;collapsible=1;marginBottom=0;whiteSpace=wrap;html=1;" vertex="1" parent="1">
          <mxGeometry x="640" y="320" width="160" height="60" as="geometry" />
        </mxCell>
        <mxCell id="iCxSiJEH_hMPDZQZ9Img-14" value="" style="line;strokeWidth=1;fillColor=none;align=left;verticalAlign=middle;spacingTop=-1;spacingLeft=3;spacingRight=3;rotatable=0;labelPosition=right;points=[];portConstraint=eastwest;strokeColor=inherit;" vertex="1" parent="iCxSiJEH_hMPDZQZ9Img-13">
          <mxGeometry y="26" width="160" height="8" as="geometry" />
        </mxCell>
        <mxCell id="iCxSiJEH_hMPDZQZ9Img-15" value="+ ProdutoDAO (): Void;" style="text;strokeColor=none;fillColor=none;align=left;verticalAlign=top;spacingLeft=4;spacingRight=4;overflow=hidden;rotatable=0;points=[[0,0.5],[1,0.5]];portConstraint=eastwest;whiteSpace=wrap;html=1;" vertex="1" parent="iCxSiJEH_hMPDZQZ9Img-13">
          <mxGeometry y="34" width="160" height="26" as="geometry" />
        </mxCell>
        <mxCell id="iCxSiJEH_hMPDZQZ9Img-16" value="DadosCriarCompra" style="swimlane;fontStyle=1;align=center;verticalAlign=top;childLayout=stackLayout;horizontal=1;startSize=26;horizontalStack=0;resizeParent=1;resizeParentMax=0;resizeLast=0;collapsible=1;marginBottom=0;whiteSpace=wrap;html=1;" vertex="1" parent="1">
          <mxGeometry x="240" y="600" width="160" height="110" as="geometry" />
        </mxCell>
        <mxCell id="iCxSiJEH_hMPDZQZ9Img-17" value="" style="line;strokeWidth=1;fillColor=none;align=left;verticalAlign=middle;spacingTop=-1;spacingLeft=3;spacingRight=3;rotatable=0;labelPosition=right;points=[];portConstraint=eastwest;strokeColor=inherit;" vertex="1" parent="iCxSiJEH_hMPDZQZ9Img-16">
          <mxGeometry y="26" width="160" height="8" as="geometry" />
        </mxCell>
        <mxCell id="iCxSiJEH_hMPDZQZ9Img-18" value="+&amp;nbsp;DadosCriarCompra (baseDados: DadosCriarBase; metodoPagamento, statusCompra: String): record;" style="text;strokeColor=none;fillColor=none;align=left;verticalAlign=top;spacingLeft=4;spacingRight=4;overflow=hidden;rotatable=0;points=[[0,0.5],[1,0.5]];portConstraint=eastwest;whiteSpace=wrap;html=1;" vertex="1" parent="iCxSiJEH_hMPDZQZ9Img-16">
          <mxGeometry y="34" width="160" height="76" as="geometry" />
        </mxCell>
        <mxCell id="iCxSiJEH_hMPDZQZ9Img-19" value="DadosCriarItemCompra" style="swimlane;fontStyle=1;align=center;verticalAlign=top;childLayout=stackLayout;horizontal=1;startSize=26;horizontalStack=0;resizeParent=1;resizeParentMax=0;resizeLast=0;collapsible=1;marginBottom=0;whiteSpace=wrap;html=1;" vertex="1" parent="1">
          <mxGeometry x="440" y="600" width="160" height="120" as="geometry" />
        </mxCell>
        <mxCell id="iCxSiJEH_hMPDZQZ9Img-20" value="" style="line;strokeWidth=1;fillColor=none;align=left;verticalAlign=middle;spacingTop=-1;spacingLeft=3;spacingRight=3;rotatable=0;labelPosition=right;points=[];portConstraint=eastwest;strokeColor=inherit;" vertex="1" parent="iCxSiJEH_hMPDZQZ9Img-19">
          <mxGeometry y="26" width="160" height="8" as="geometry" />
        </mxCell>
        <mxCell id="iCxSiJEH_hMPDZQZ9Img-21" value="+&amp;nbsp;DadosCriarItemCompra&lt;br&gt;(baseDados: DadosCriarBase; quantidade: Integer, produto: Produto; compra: Compra): record;" style="text;strokeColor=none;fillColor=none;align=left;verticalAlign=top;spacingLeft=4;spacingRight=4;overflow=hidden;rotatable=0;points=[[0,0.5],[1,0.5]];portConstraint=eastwest;whiteSpace=wrap;html=1;" vertex="1" parent="iCxSiJEH_hMPDZQZ9Img-19">
          <mxGeometry y="34" width="160" height="86" as="geometry" />
        </mxCell>
        <mxCell id="iCxSiJEH_hMPDZQZ9Img-22" value="DadosCriarBase" style="swimlane;fontStyle=1;align=center;verticalAlign=top;childLayout=stackLayout;horizontal=1;startSize=26;horizontalStack=0;resizeParent=1;resizeParentMax=0;resizeLast=0;collapsible=1;marginBottom=0;whiteSpace=wrap;html=1;" vertex="1" parent="1">
          <mxGeometry x="40" y="600" width="160" height="110" as="geometry" />
        </mxCell>
        <mxCell id="iCxSiJEH_hMPDZQZ9Img-24" value="" style="line;strokeWidth=1;fillColor=none;align=left;verticalAlign=middle;spacingTop=-1;spacingLeft=3;spacingRight=3;rotatable=0;labelPosition=right;points=[];portConstraint=eastwest;strokeColor=inherit;" vertex="1" parent="iCxSiJEH_hMPDZQZ9Img-22">
          <mxGeometry y="26" width="160" height="8" as="geometry" />
        </mxCell>
        <mxCell id="iCxSiJEH_hMPDZQZ9Img-25" value="+&amp;nbsp;DadosCriarBase (valor: Double): record;&lt;br&gt;+&amp;nbsp;DadosCriarBase (valor: Double, id: Integer): record;" style="text;strokeColor=none;fillColor=none;align=left;verticalAlign=top;spacingLeft=4;spacingRight=4;overflow=hidden;rotatable=0;points=[[0,0.5],[1,0.5]];portConstraint=eastwest;whiteSpace=wrap;html=1;" vertex="1" parent="iCxSiJEH_hMPDZQZ9Img-22">
          <mxGeometry y="34" width="160" height="76" as="geometry" />
        </mxCell>
        <mxCell id="iCxSiJEH_hMPDZQZ9Img-26" value="DadosCriarProduto" style="swimlane;fontStyle=1;align=center;verticalAlign=top;childLayout=stackLayout;horizontal=1;startSize=26;horizontalStack=0;resizeParent=1;resizeParentMax=0;resizeLast=0;collapsible=1;marginBottom=0;whiteSpace=wrap;html=1;" vertex="1" parent="1">
          <mxGeometry x="640" y="600" width="160" height="120" as="geometry" />
        </mxCell>
        <mxCell id="iCxSiJEH_hMPDZQZ9Img-27" value="" style="line;strokeWidth=1;fillColor=none;align=left;verticalAlign=middle;spacingTop=-1;spacingLeft=3;spacingRight=3;rotatable=0;labelPosition=right;points=[];portConstraint=eastwest;strokeColor=inherit;" vertex="1" parent="iCxSiJEH_hMPDZQZ9Img-26">
          <mxGeometry y="26" width="160" height="8" as="geometry" />
        </mxCell>
        <mxCell id="iCxSiJEH_hMPDZQZ9Img-28" value="+&amp;nbsp;DadosCriarProduto&lt;br&gt;(baseDados: DadosCriarBase; nome, descricao, umMedida, categoria: String, valorMedida: Double): record;" style="text;strokeColor=none;fillColor=none;align=left;verticalAlign=top;spacingLeft=4;spacingRight=4;overflow=hidden;rotatable=0;points=[[0,0.5],[1,0.5]];portConstraint=eastwest;whiteSpace=wrap;html=1;" vertex="1" parent="iCxSiJEH_hMPDZQZ9Img-26">
          <mxGeometry y="34" width="160" height="86" as="geometry" />
        </mxCell>
        <mxCell id="iCxSiJEH_hMPDZQZ9Img-29" value="DadosEditarCompra" style="swimlane;fontStyle=1;align=center;verticalAlign=top;childLayout=stackLayout;horizontal=1;startSize=26;horizontalStack=0;resizeParent=1;resizeParentMax=0;resizeLast=0;collapsible=1;marginBottom=0;whiteSpace=wrap;html=1;" vertex="1" parent="1">
          <mxGeometry x="240" y="760" width="160" height="110" as="geometry" />
        </mxCell>
        <mxCell id="iCxSiJEH_hMPDZQZ9Img-30" value="" style="line;strokeWidth=1;fillColor=none;align=left;verticalAlign=middle;spacingTop=-1;spacingLeft=3;spacingRight=3;rotatable=0;labelPosition=right;points=[];portConstraint=eastwest;strokeColor=inherit;" vertex="1" parent="iCxSiJEH_hMPDZQZ9Img-29">
          <mxGeometry y="26" width="160" height="8" as="geometry" />
        </mxCell>
        <mxCell id="iCxSiJEH_hMPDZQZ9Img-31" value="+&amp;nbsp;DadosEditarCompra (baseDados: DadosEditarBase; metodoPagamento, statusCompra: String): record;" style="text;strokeColor=none;fillColor=none;align=left;verticalAlign=top;spacingLeft=4;spacingRight=4;overflow=hidden;rotatable=0;points=[[0,0.5],[1,0.5]];portConstraint=eastwest;whiteSpace=wrap;html=1;" vertex="1" parent="iCxSiJEH_hMPDZQZ9Img-29">
          <mxGeometry y="34" width="160" height="76" as="geometry" />
        </mxCell>
        <mxCell id="iCxSiJEH_hMPDZQZ9Img-32" value="DadosEditarItemCompra" style="swimlane;fontStyle=1;align=center;verticalAlign=top;childLayout=stackLayout;horizontal=1;startSize=26;horizontalStack=0;resizeParent=1;resizeParentMax=0;resizeLast=0;collapsible=1;marginBottom=0;whiteSpace=wrap;html=1;" vertex="1" parent="1">
          <mxGeometry x="440" y="760" width="160" height="90" as="geometry" />
        </mxCell>
        <mxCell id="iCxSiJEH_hMPDZQZ9Img-33" value="" style="line;strokeWidth=1;fillColor=none;align=left;verticalAlign=middle;spacingTop=-1;spacingLeft=3;spacingRight=3;rotatable=0;labelPosition=right;points=[];portConstraint=eastwest;strokeColor=inherit;" vertex="1" parent="iCxSiJEH_hMPDZQZ9Img-32">
          <mxGeometry y="26" width="160" height="8" as="geometry" />
        </mxCell>
        <mxCell id="iCxSiJEH_hMPDZQZ9Img-34" value="+&amp;nbsp;DadosEditarItemCompra&lt;br&gt;(baseDados: DadosEditarBase; quantidade: Integer,): record;" style="text;strokeColor=none;fillColor=none;align=left;verticalAlign=top;spacingLeft=4;spacingRight=4;overflow=hidden;rotatable=0;points=[[0,0.5],[1,0.5]];portConstraint=eastwest;whiteSpace=wrap;html=1;" vertex="1" parent="iCxSiJEH_hMPDZQZ9Img-32">
          <mxGeometry y="34" width="160" height="56" as="geometry" />
        </mxCell>
        <mxCell id="iCxSiJEH_hMPDZQZ9Img-35" value="DadosEditarBase" style="swimlane;fontStyle=1;align=center;verticalAlign=top;childLayout=stackLayout;horizontal=1;startSize=26;horizontalStack=0;resizeParent=1;resizeParentMax=0;resizeLast=0;collapsible=1;marginBottom=0;whiteSpace=wrap;html=1;" vertex="1" parent="1">
          <mxGeometry x="40" y="760" width="160" height="70" as="geometry" />
        </mxCell>
        <mxCell id="iCxSiJEH_hMPDZQZ9Img-36" value="" style="line;strokeWidth=1;fillColor=none;align=left;verticalAlign=middle;spacingTop=-1;spacingLeft=3;spacingRight=3;rotatable=0;labelPosition=right;points=[];portConstraint=eastwest;strokeColor=inherit;" vertex="1" parent="iCxSiJEH_hMPDZQZ9Img-35">
          <mxGeometry y="26" width="160" height="8" as="geometry" />
        </mxCell>
        <mxCell id="iCxSiJEH_hMPDZQZ9Img-37" value="+&amp;nbsp;DadosEditarBase (valor: Double): record;" style="text;strokeColor=none;fillColor=none;align=left;verticalAlign=top;spacingLeft=4;spacingRight=4;overflow=hidden;rotatable=0;points=[[0,0.5],[1,0.5]];portConstraint=eastwest;whiteSpace=wrap;html=1;" vertex="1" parent="iCxSiJEH_hMPDZQZ9Img-35">
          <mxGeometry y="34" width="160" height="36" as="geometry" />
        </mxCell>
        <mxCell id="iCxSiJEH_hMPDZQZ9Img-38" value="DadosEditarProduto" style="swimlane;fontStyle=1;align=center;verticalAlign=top;childLayout=stackLayout;horizontal=1;startSize=26;horizontalStack=0;resizeParent=1;resizeParentMax=0;resizeLast=0;collapsible=1;marginBottom=0;whiteSpace=wrap;html=1;" vertex="1" parent="1">
          <mxGeometry x="640" y="760" width="160" height="120" as="geometry" />
        </mxCell>
        <mxCell id="iCxSiJEH_hMPDZQZ9Img-39" value="" style="line;strokeWidth=1;fillColor=none;align=left;verticalAlign=middle;spacingTop=-1;spacingLeft=3;spacingRight=3;rotatable=0;labelPosition=right;points=[];portConstraint=eastwest;strokeColor=inherit;" vertex="1" parent="iCxSiJEH_hMPDZQZ9Img-38">
          <mxGeometry y="26" width="160" height="8" as="geometry" />
        </mxCell>
        <mxCell id="iCxSiJEH_hMPDZQZ9Img-40" value="+&amp;nbsp;DadosEditarProduto&lt;br&gt;(baseDados: DadosEditarBase; nome, descricao, unMedida, categoria: String, valorMedida: Double): record;" style="text;strokeColor=none;fillColor=none;align=left;verticalAlign=top;spacingLeft=4;spacingRight=4;overflow=hidden;rotatable=0;points=[[0,0.5],[1,0.5]];portConstraint=eastwest;whiteSpace=wrap;html=1;" vertex="1" parent="iCxSiJEH_hMPDZQZ9Img-38">
          <mxGeometry y="34" width="160" height="86" as="geometry" />
        </mxCell>
        <mxCell id="iCxSiJEH_hMPDZQZ9Img-60" value="BaseService" style="swimlane;fontStyle=1;align=center;verticalAlign=top;childLayout=stackLayout;horizontal=1;startSize=26;horizontalStack=0;resizeParent=1;resizeParentMax=0;resizeLast=0;collapsible=1;marginBottom=0;whiteSpace=wrap;html=1;" vertex="1" parent="1">
          <mxGeometry x="40" y="920" width="160" height="260" as="geometry" />
        </mxCell>
        <mxCell id="iCxSiJEH_hMPDZQZ9Img-61" value="- connection: ConnectionFactory;&lt;br&gt;- itens: ArrayList&amp;lt;Base&amp;gt;;" style="text;strokeColor=none;fillColor=none;align=left;verticalAlign=top;spacingLeft=4;spacingRight=4;overflow=hidden;rotatable=0;points=[[0,0.5],[1,0.5]];portConstraint=eastwest;whiteSpace=wrap;html=1;" vertex="1" parent="iCxSiJEH_hMPDZQZ9Img-60">
          <mxGeometry y="26" width="160" height="54" as="geometry" />
        </mxCell>
        <mxCell id="iCxSiJEH_hMPDZQZ9Img-62" value="" style="line;strokeWidth=1;fillColor=none;align=left;verticalAlign=middle;spacingTop=-1;spacingLeft=3;spacingRight=3;rotatable=0;labelPosition=right;points=[];portConstraint=eastwest;strokeColor=inherit;" vertex="1" parent="iCxSiJEH_hMPDZQZ9Img-60">
          <mxGeometry y="80" width="160" height="8" as="geometry" />
        </mxCell>
        <mxCell id="iCxSiJEH_hMPDZQZ9Img-63" value="+ BaseService (): Void;&lt;br&gt;+ adicionar(dadosBase: DadosCriarBase): Void;&lt;br&gt;+ editar(dadosBase: DadosEditarBase): Void;&lt;br&gt;+ listar(): ArrayList&amp;lt;Base&amp;gt;;&lt;br&gt;+ capturarObjeto(id: Integer): Base;&lt;br&gt;+ removerObjeto (id: Integer): Void;" style="text;strokeColor=none;fillColor=none;align=left;verticalAlign=top;spacingLeft=4;spacingRight=4;overflow=hidden;rotatable=0;points=[[0,0.5],[1,0.5]];portConstraint=eastwest;whiteSpace=wrap;html=1;" vertex="1" parent="iCxSiJEH_hMPDZQZ9Img-60">
          <mxGeometry y="88" width="160" height="172" as="geometry" />
        </mxCell>
        <mxCell id="iCxSiJEH_hMPDZQZ9Img-64" value="CompraService" style="swimlane;fontStyle=1;align=center;verticalAlign=top;childLayout=stackLayout;horizontal=1;startSize=26;horizontalStack=0;resizeParent=1;resizeParentMax=0;resizeLast=0;collapsible=1;marginBottom=0;whiteSpace=wrap;html=1;" vertex="1" parent="1">
          <mxGeometry x="240" y="920" width="160" height="60" as="geometry" />
        </mxCell>
        <mxCell id="iCxSiJEH_hMPDZQZ9Img-65" value="" style="line;strokeWidth=1;fillColor=none;align=left;verticalAlign=middle;spacingTop=-1;spacingLeft=3;spacingRight=3;rotatable=0;labelPosition=right;points=[];portConstraint=eastwest;strokeColor=inherit;" vertex="1" parent="iCxSiJEH_hMPDZQZ9Img-64">
          <mxGeometry y="26" width="160" height="8" as="geometry" />
        </mxCell>
        <mxCell id="iCxSiJEH_hMPDZQZ9Img-66" value="+ CompraService (): Void;" style="text;strokeColor=none;fillColor=none;align=left;verticalAlign=top;spacingLeft=4;spacingRight=4;overflow=hidden;rotatable=0;points=[[0,0.5],[1,0.5]];portConstraint=eastwest;whiteSpace=wrap;html=1;" vertex="1" parent="iCxSiJEH_hMPDZQZ9Img-64">
          <mxGeometry y="34" width="160" height="26" as="geometry" />
        </mxCell>
        <mxCell id="iCxSiJEH_hMPDZQZ9Img-67" value="ItemCompraService" style="swimlane;fontStyle=1;align=center;verticalAlign=top;childLayout=stackLayout;horizontal=1;startSize=26;horizontalStack=0;resizeParent=1;resizeParentMax=0;resizeLast=0;collapsible=1;marginBottom=0;whiteSpace=wrap;html=1;" vertex="1" parent="1">
          <mxGeometry x="440" y="920" width="160" height="60" as="geometry" />
        </mxCell>
        <mxCell id="iCxSiJEH_hMPDZQZ9Img-68" value="" style="line;strokeWidth=1;fillColor=none;align=left;verticalAlign=middle;spacingTop=-1;spacingLeft=3;spacingRight=3;rotatable=0;labelPosition=right;points=[];portConstraint=eastwest;strokeColor=inherit;" vertex="1" parent="iCxSiJEH_hMPDZQZ9Img-67">
          <mxGeometry y="26" width="160" height="8" as="geometry" />
        </mxCell>
        <mxCell id="iCxSiJEH_hMPDZQZ9Img-69" value="+ ItemCompraService&amp;nbsp;(): Void;" style="text;strokeColor=none;fillColor=none;align=left;verticalAlign=top;spacingLeft=4;spacingRight=4;overflow=hidden;rotatable=0;points=[[0,0.5],[1,0.5]];portConstraint=eastwest;whiteSpace=wrap;html=1;" vertex="1" parent="iCxSiJEH_hMPDZQZ9Img-67">
          <mxGeometry y="34" width="160" height="26" as="geometry" />
        </mxCell>
        <mxCell id="iCxSiJEH_hMPDZQZ9Img-70" value="ProdutoService" style="swimlane;fontStyle=1;align=center;verticalAlign=top;childLayout=stackLayout;horizontal=1;startSize=26;horizontalStack=0;resizeParent=1;resizeParentMax=0;resizeLast=0;collapsible=1;marginBottom=0;whiteSpace=wrap;html=1;" vertex="1" parent="1">
          <mxGeometry x="640" y="920" width="160" height="60" as="geometry" />
        </mxCell>
        <mxCell id="iCxSiJEH_hMPDZQZ9Img-71" value="" style="line;strokeWidth=1;fillColor=none;align=left;verticalAlign=middle;spacingTop=-1;spacingLeft=3;spacingRight=3;rotatable=0;labelPosition=right;points=[];portConstraint=eastwest;strokeColor=inherit;" vertex="1" parent="iCxSiJEH_hMPDZQZ9Img-70">
          <mxGeometry y="26" width="160" height="8" as="geometry" />
        </mxCell>
        <mxCell id="iCxSiJEH_hMPDZQZ9Img-72" value="+ ProdutoService&amp;nbsp;(): Void;" style="text;strokeColor=none;fillColor=none;align=left;verticalAlign=top;spacingLeft=4;spacingRight=4;overflow=hidden;rotatable=0;points=[[0,0.5],[1,0.5]];portConstraint=eastwest;whiteSpace=wrap;html=1;" vertex="1" parent="iCxSiJEH_hMPDZQZ9Img-70">
          <mxGeometry y="34" width="160" height="26" as="geometry" />
        </mxCell>
        <mxCell id="iCxSiJEH_hMPDZQZ9Img-73" value="MiniWineBar" style="swimlane;fontStyle=1;align=center;verticalAlign=top;childLayout=stackLayout;horizontal=1;startSize=26;horizontalStack=0;resizeParent=1;resizeParentMax=0;resizeLast=0;collapsible=1;marginBottom=0;whiteSpace=wrap;html=1;" vertex="1" parent="1">
          <mxGeometry x="40" y="1240" width="160" height="430" as="geometry" />
        </mxCell>
        <mxCell id="iCxSiJEH_hMPDZQZ9Img-74" value="-&amp;nbsp; itemCompraService: ItemCompraService;&lt;br&gt;-&amp;nbsp; CompraService: CompraService;&lt;br&gt;- teclado: Scanner;" style="text;strokeColor=none;fillColor=none;align=left;verticalAlign=top;spacingLeft=4;spacingRight=4;overflow=hidden;rotatable=0;points=[[0,0.5],[1,0.5]];portConstraint=eastwest;whiteSpace=wrap;html=1;" vertex="1" parent="iCxSiJEH_hMPDZQZ9Img-73">
          <mxGeometry y="26" width="160" height="84" as="geometry" />
        </mxCell>
        <mxCell id="iCxSiJEH_hMPDZQZ9Img-75" value="" style="line;strokeWidth=1;fillColor=none;align=left;verticalAlign=middle;spacingTop=-1;spacingLeft=3;spacingRight=3;rotatable=0;labelPosition=right;points=[];portConstraint=eastwest;strokeColor=inherit;" vertex="1" parent="iCxSiJEH_hMPDZQZ9Img-73">
          <mxGeometry y="110" width="160" height="8" as="geometry" />
        </mxCell>
        <mxCell id="iCxSiJEH_hMPDZQZ9Img-76" value="+ exibirMenu(): Void;&lt;br&gt;+ verCatalogo(): Void;&lt;br&gt;+ visualizarSugestoes(): Void;&lt;br&gt;+ escolherItem(): Void;&lt;br&gt;+ adicionarItem (): Void;&lt;br&gt;+ pesquisarTexto (pesquisa: String): Void;&lt;br&gt;+ pesquisarCategoria (): Void;&lt;br&gt;+ escolherCategoria (categoria: Integer): Void;&lt;br&gt;+ verHistorico (): Void;&lt;br&gt;+ detalhesCompra (id: Integer);&lt;br&gt;+ copiarCompra (id: Integer);&lt;br&gt;+ verCarrinho (): Void;&lt;br&gt;+ limparLista (): Void;&lt;br&gt;+ editarItem(): Void;&lt;br&gt;+ selecionarItem (): Void;&lt;br&gt;+ alterarItem(): Void;&lt;br&gt;+ removerItem (): Void;&lt;br&gt;+ finalizarCompra (): Void;" style="text;strokeColor=none;fillColor=none;align=left;verticalAlign=top;spacingLeft=4;spacingRight=4;overflow=hidden;rotatable=0;points=[[0,0.5],[1,0.5]];portConstraint=eastwest;whiteSpace=wrap;html=1;" vertex="1" parent="iCxSiJEH_hMPDZQZ9Img-73">
          <mxGeometry y="118" width="160" height="312" as="geometry" />
        </mxCell>
      </root>
    </mxGraphModel>
  </diagram>
</mxfile>
